<?xml version="1.0" encoding="utf-8"?>
<!-- Generator: Adobe Illustrator 20.0.0, SVG Export Plug-In . SVG Version: 6.00 Build 0)  -->
<svg version="1.1" id="Calque_1" xmlns="http://www.w3.org/2000/svg" xmlns:xlink="http://www.w3.org/1999/xlink" x="0px" y="0px"
	 width="1094px" height="252.3px" viewBox="0 0 1094 252.3" enable-background="new 0 0 1094 252.3" xml:space="preserve">
<g id="EUML">
	<polygon fill="#F5B220" points="385.2,223.8 394.8,224.7 399.5,233.3 403.4,224.3 413,222.5 405.7,216 406.9,206.4 398.5,211.3 
		389.7,207.2 391.8,216.7 	"/>
	<polygon fill="#F5B220" points="416.7,176.4 413.5,181.8 419.7,181.1 423.9,185.8 425.1,179.7 430.8,177.2 425.4,174.1 
		424.8,167.9 420.2,172.1 414.1,170.7 	"/>
	<polygon fill="#F5B220" points="389.1,189.5 383.8,195.4 391.7,196 395.7,202.9 398.8,195.6 406.6,193.9 400.5,188.7 401.3,180.8 
		394.5,185 387.2,181.7 	"/>
	<polygon fill="#F5B220" points="387.5,245.9 394.3,245.2 392.7,243.9 398.3,240.9 392.5,238.4 391.4,232.1 387.2,236.8 380.9,236 
		384,241.5 381.3,247.1 	"/>
	<polygon fill="#F5B220" points="479.3,198 480.9,210.3 489.8,201.6 502,203.9 496.4,192.7 502.4,181.8 490,183.7 481.5,174.6 
		479.5,186.9 468.2,192.3 	"/>
	<polygon fill="#F5B220" points="449.6,188.9 456.5,187.2 461.8,191.9 462.3,184.8 468.4,181.2 461.8,178.6 460.3,171.7 
		455.7,177.1 448.7,176.4 452.5,182.4 	"/>
	<polygon fill="#F5B220" points="433.7,199.2 422.2,198.5 428.7,208 424.5,218.8 435.6,215.5 444.5,222.8 444.8,211.3 454.5,205.1 
		443.7,201.2 440.7,190 	"/>
	<polygon fill="#F5B220" points="423.3,241 428.8,245.7 429.2,238.5 435.3,234.7 428.6,232.2 426.9,225.2 422.4,230.7 415.2,230.2 
		419.1,236.2 416.4,242.8 	"/>
	<polygon fill="#F5B220" points="374.9,216.3 375.2,210.1 370.2,213.6 364.4,211.4 366.2,217.3 362.3,222.1 368.4,222.2 
		371.8,227.4 373.8,221.6 379.8,220 	"/>
	<g>
		<path fill="#F5B220" d="M492.8,102.7c-1-20.4-16-28.6-30.2-28.6c-28.2,0-42,25.4-40.9,47.3c1,20.4,16,28.6,30.2,28.6
			C479.3,150.1,494,125.9,492.8,102.7z M453.5,134.3c-6.1,0-12.1-4.8-11.9-16.7c0.3-12.5,7.3-27.6,19.6-27.6
			c6.1,0,12.1,4.8,11.9,16.7C472.8,119.2,465.7,134.3,453.5,134.3z"/>
		<polygon fill="#F5B220" points="563.8,76.4 542.6,110.1 535.9,76.3 505.8,76.4 509.2,83 492.6,147.8 509.8,147.8 521.7,99.9 
			528.2,131.7 545,131.7 567.3,98.9 554.7,147.8 574,147.8 589.6,76.4 		"/>
		<polygon fill="#F5B220" points="589.2,147.8 608.5,147.8 623.9,76.4 604.6,76.4 		"/>
		<path fill="#F5B220" d="M331.1,76.4L320.7,125c-3.9,5.8-9,9-15.4,9c-7.7,0-12-3.5-9.2-17.1c2.3-11.5,8.6-40.5,8.6-40.5h-19.3
			l-9.3,43.3c-3.9,20.9,4.9,30.1,20.9,30.1c8.3,0,15.7-3.8,19.8-6.4l-1,4.5h19.3l15.3-71.5L331.1,76.4L331.1,76.4z"/>
		<path fill="#F5B220" d="M223.6,83L223.6,83c-2.6,12.1-7.9,36.9-8.7,41c-1.1,5.5-6.4,23.8,14.3,23.8h33.5l3.4-15.3h-28.3
			c-5.4,0-4.4-4.3-3.8-7.7c0.2-1.1,0.7-3.2,1.4-7h27.4l3.4-14.7h-27.5c0.8-3.8,1.6-7.9,2.4-11.5h30.5l3.4-15.3h-54.8L223.6,83z"/>
		<path fill="#F5B220" d="M418.6,96.9c0.7-18.7-17.2-20.6-30.2-20.6h-28.9l3.4,6.7l0,0l-13.8,64.8h19.3l5.9-27.5
			c2.2,0.1,6.5,0.1,6.5,0.1l6.7,17.9c0,0,3.1,10.9,14.4,10.8c0,0,3.1,0.3,10.7-1.1l1-9.7c-5.6-0.7-7.2-6-7.2-6l-6.1-14.8
			C409.9,114.4,418.2,108.2,418.6,96.9z M397.9,99.5c-1.1,5.2-4.6,8.8-13.3,8.8h-7.7l3.9-18h6.7C396.5,90.4,399.2,93.8,397.9,99.5z"
			/>
		<path fill="#F5B220" d="M810.5,74.1c-28.2,0-42,25.4-40.9,47.3c1,20.4,16,28.6,30.2,28.6c27.3,0,42-24.2,40.9-47.3
			C839.7,82.3,824.7,74.1,810.5,74.1z M801.3,134.3c-6.1,0-12.1-4.8-11.9-16.7c0.3-12.5,7.3-27.6,19.6-27.6
			c6.1,0,12.1,4.8,11.9,16.7C820.6,119.2,813.5,134.3,801.3,134.3z"/>
		<polygon fill="#F5B220" points="905.6,76.4 896.6,118.4 876.1,76.4 853.4,76.4 856.8,83 842.9,147.8 860.8,147.8 869.5,107.5 
			890.3,147.8 908.2,147.8 923.5,76.4 		"/>
		<path fill="#F5B220" d="M646.8,124.8c1.1-5.8,10.4-48.5,10.4-48.5h-19.3c0,0-9.1,42.1-10.2,47.7c-1.1,5.5-6.4,23.8,14.3,23.8h29.4
			l3.4-15.3h-24.1C645.3,132.6,646.2,128.3,646.8,124.8z"/>
		<path fill="#F5B220" d="M972.9,126.6c0-17-22-23.2-22-32.7c0-3.3,2.4-5.4,7.1-5.4c6.5,0,16,4.1,16,4.1l5.2-14.8
			c-6.1-2-13.5-3.4-22.1-3.4c-17.9,0-24.8,9.7-25.9,20.6c-2,19.6,21.3,24.8,20.5,33.3c-0.4,4.1-4.6,6.5-11.1,6.5
			c-7,0-14.2-3.8-14.2-3.8l-4.6,15.1c0,0,8.1,3.8,21,3.8C959.8,149.9,972.9,141.2,972.9,126.6z"/>
		<polygon fill="#F5B220" points="732,147.8 751.4,147.8 766.8,76.4 747.4,76.4 		"/>
		<path fill="#F5B220" d="M700.1,124.8c1.1-5.8,10.4-48.5,10.4-48.5h-19.3c0,0-9.1,42.1-10.2,47.7c-1.1,5.5-6.4,23.8,14.3,23.8h29.4
			l3.4-15.3H704C698.5,132.6,699.5,128.3,700.1,124.8z"/>
		<path fill="#F5B220" d="M1088.4,79.3h-64.8c-2.5,0-6.9,0-7.5-0.2c-0.4-0.2-1-0.3-3.3-7.6L992.6,9.1c-0.5-1.4-0.9-1.8-1.1-1.9
			c-0.1,0-0.6,0.5-1,1.9l-20.2,61.4c3.8,0.8,7.6,2.1,10.4,3l6.5-20c0-0.1,2.1-6.5,2.8-7.4l0.3-0.4h2.1l0.3,0.4
			c0.7,0.9,2.8,7.4,2.8,7.4l10.7,33c1,3,1.7,3.6,4.9,3.6h33.9c0.1,0,6.8,0,7.9,0.4l0.5,0.2l0.6,2l-0.3,0.4c-0.7,1-6.1,4.9-6.2,5
			l-27.1,19.8c-2.8,2.1-3.3,2.5-2.4,5.3l10.7,33.1c0,0.1,2.1,6.5,2.1,7.7v0.5l-1.7,1.2l-0.5-0.2c-1.1-0.3-6.6-4.3-6.7-4.3L993.8,141
			c-1.2-0.9-2-1.3-2.7-1.3c-0.8,0-1.7,0.5-3.1,1.6l-27.8,20.3c-2.9,2.1-6.9,6.2-9,9l-16.7,23l50-36.4c5.8-4.2,6-4.2,6.3-4.3
			c0.1,0,0.3,0,0.4,0s0.3,0,0.4,0c0.3,0,0.5,0.1,6.3,4.2l52.4,37.7c1.1,0.8,1.7,0.9,1.9,0.9c0.1,0,0.1,0,0.1,0s0.3-0.5-0.3-2.1
			l-19.9-61.4c-0.8-2.4-2.1-6.6-2.1-7.2c0-0.5,0-1,6.2-5.6l52.4-38.2c1.2-0.9,1.5-1.5,1.5-1.6C1090.4,79.6,1089.9,79.3,1088.4,79.3z
			"/>
	</g>
	<path fill="#F5B220" d="M802.1,192.8c-6.9,0-10.8,8.5-11,15.5c-0.1,6.7,3.2,9.4,6.7,9.4c6.9,0,10.8-8.5,11-15.5
		C808.9,195.5,805.5,192.8,802.1,192.8z"/>
	<path fill="#F5B220" d="M485.9,191.2c-1.7,1.7-3.4,3.4-5,5l-9.1,8.3c-2.4,2.1-4.9,4.1-7.4,6l-7.8,5.6c-3.7,2.5-7.4,4.8-11.4,7
		l-14.9,7.3c-18.1,7.7-39.6,13.1-67.2,16.7h474.1c26.6,0,48.4-14.6,66.2-37.5c15.3-19.8,32-45.9,32-45.9H510.3
		c-3.6,4.4-7.1,8.6-10.6,12.6L485.9,191.2z M563.5,225.5h-11l7.2-27.7l-12.6,18.6h-9.5l-3.7-18l-6.7,27.1h-9.8l9.4-36.7l-1.9-3.7h17
		l3.8,19.1l12-19.1h14.6L563.5,225.5z M596.6,210.4l-3.6,15.2h-12l3.3-15.6c-3-4.7-6.9-14-7.5-24.9h11.9c0.6,7.8,2.5,13.7,4.2,17.5
		c3.2-3.2,8.1-11.2,10.9-17.4c3.7,0,7.4,0,11.2,0C611,194.6,604.5,203.4,596.6,210.4z M659.3,225.3l7.1-27.5l-12.5,18.4h-9.5
		l-3.7-17.8l-6.7,26.9h-9.6l9.3-36.4l-1.9-3.7h16.9l3.8,19l11.9-18.9h14.5l-8.7,40.1L659.3,225.3L659.3,225.3z M689.5,225.3h-10.9
		l8.6-40.1h10.9L689.5,225.3z M724.8,225.3h-16.5c-11.6,0-8.6-10.2-8-13.3s5.7-26.8,5.7-26.8h10.9c0,0-5.2,23.9-5.8,27.2
		c-0.4,1.9-0.9,4.3,2.1,4.3h13.5L724.8,225.3z M754.7,225.3h-16.5c-11.6,0-8.6-10.2-8-13.3s5.7-26.8,5.7-26.8h10.9
		c0,0-5.2,23.9-5.8,27.2c-0.4,1.9-0.9,4.3,2.1,4.3h13.5L754.7,225.3z M769.7,225.3h-10.9l8.6-40.1h11L769.7,225.3z M796.9,226.6
		c-7.9,0-16.4-4.6-16.9-16.1c-0.6-12.3,7.1-26.6,22.9-26.6c7.9,0,16.4,4.6,16.9,16.1C820.5,213,812.2,226.6,796.9,226.6z
		 M857.7,225.3h-10.1l-11.7-22.6l-4.8,22.6H821l7.8-36.4l-1.9-3.7h12.8l11.5,23.6l5-23.6h10.1L857.7,225.3z"/>
	<g>
		<path fill="#FFFFFF" d="M111.5,44.4l64.2,64.5c9.9,9.9,9.9,25.9,0,35.8l-64.2,64.5c-9.9,9.9-25.9,10-35.9,0.1l-64.8-64.5
			c-9.9-9.9-9.9-26,0-35.9l64.8-64.5C85.6,34.4,101.6,34.5,111.5,44.4z"/>
		
			<linearGradient id="SVGID_1_" gradientUnits="userSpaceOnUse" x1="173.296" y1="2122.5642" x2="6.1439" y2="2122.5642" gradientTransform="matrix(1 0 0 -1 3.142143e-03 2249.3643)">
			<stop  offset="3.973643e-07" style="stop-color:#49BBEC"/>
			<stop  offset="0.16" style="stop-color:#1281C5"/>
			<stop  offset="0.33" style="stop-color:#096DB3"/>
			<stop  offset="0.5" style="stop-color:#095DA7"/>
			<stop  offset="0.71" style="stop-color:#09559E"/>
			<stop  offset="1" style="stop-color:#08529C"/>
		</linearGradient>
		<path fill="url(#SVGID_1_)" d="M15.6,113.5l64.3-64.3c7.3-7.3,19.2-7.3,26.6,0l64.3,64.3c7.3,7.3,7.3,19.2,0,26.6l-64.3,64.3
			c-7.3,7.3-19.2,7.3-26.6,0L15.6,140C8.3,132.7,8.3,120.8,15.6,113.5z"/>
		<path fill="#08509A" d="M15.6,113.5l64.3-64.3c7.3-7.3,19.2-7.3,26.6,0l64.3,64.3c7.3,7.3,7.3,19.2,0,26.6l-64.3,64.3
			c-7.3,7.3-19.2,7.3-26.6,0L15.6,140C8.3,132.7,8.3,120.8,15.6,113.5z"/>
		
			<radialGradient id="SVGID_2_" cx="169.5535" cy="2122.7961" r="108.0482" gradientTransform="matrix(1 0 0 -1 3.142143e-03 2249.3643)" gradientUnits="userSpaceOnUse">
			<stop  offset="3.973643e-07" style="stop-color:#2FABE2"/>
			<stop  offset="0.1791" style="stop-color:#2AA5DE;stop-opacity:0.8209"/>
			<stop  offset="0.409" style="stop-color:#2196D4;stop-opacity:0.591"/>
			<stop  offset="0.6664" style="stop-color:#167EC2;stop-opacity:0.3336"/>
			<stop  offset="0.9423" style="stop-color:#0D5AA4;stop-opacity:5.772877e-02"/>
			<stop  offset="1" style="stop-color:#08529C;stop-opacity:0"/>
		</radialGradient>
		<path fill="url(#SVGID_2_)" d="M15.6,113.5l64.3-64.3c7.3-7.3,19.2-7.3,26.6,0l64.3,64.3c7.3,7.3,7.3,19.2,0,26.6l-64.3,64.3
			c-7.3,7.3-19.2,7.3-26.6,0L15.6,140C8.3,132.7,8.3,120.8,15.6,113.5z"/>
		
			<linearGradient id="SVGID_3_" gradientUnits="userSpaceOnUse" x1="127.4872" y1="2156.5645" x2="138.8418" y2="2167.823" gradientTransform="matrix(1 0 0 -1 3.142143e-03 2249.3643)">
			<stop  offset="0" style="stop-color:#07539D;stop-opacity:0"/>
			<stop  offset="1" style="stop-color:#07539D"/>
		</linearGradient>
		<path fill="url(#SVGID_3_)" d="M15.6,113.5l64.3-64.3c7.3-7.3,19.2-7.3,26.6,0l64.3,64.3c7.3,7.3,7.3,19.2,0,26.6l-64.3,64.3
			c-7.3,7.3-19.2,7.3-26.6,0L15.6,140C8.3,132.7,8.3,120.8,15.6,113.5z"/>
		
			<linearGradient id="SVGID_4_" gradientUnits="userSpaceOnUse" x1="127.1178" y1="2088.0107" x2="138.3113" y2="2076.592" gradientTransform="matrix(1 0 0 -1 3.142143e-03 2249.3643)">
			<stop  offset="0" style="stop-color:#07539D;stop-opacity:0"/>
			<stop  offset="1" style="stop-color:#07539D"/>
		</linearGradient>
		<path fill="url(#SVGID_4_)" d="M15.6,113.5l64.3-64.3c7.3-7.3,19.2-7.3,26.6,0l64.3,64.3c7.3,7.3,7.3,19.2,0,26.6l-64.3,64.3
			c-7.3,7.3-19.2,7.3-26.6,0L15.6,140C8.3,132.7,8.3,120.8,15.6,113.5z"/>
		
			<linearGradient id="SVGID_5_" gradientUnits="userSpaceOnUse" x1="164.1214" y1="2125.0293" x2="176.2074" y2="2125.4492" gradientTransform="matrix(1 0 0 -1 3.142143e-03 2249.3643)">
			<stop  offset="0" style="stop-color:#07539D;stop-opacity:0"/>
			<stop  offset="1" style="stop-color:#07539D"/>
		</linearGradient>
		<path fill="url(#SVGID_5_)" d="M15.6,113.5l64.3-64.3c7.3-7.3,19.2-7.3,26.6,0l64.3,64.3c7.3,7.3,7.3,19.2,0,26.6l-64.3,64.3
			c-7.3,7.3-19.2,7.3-26.6,0L15.6,140C8.3,132.7,8.3,120.8,15.6,113.5z"/>
		<path fill="#FFFFFF" d="M145.5,107.4c-0.4-1.1-0.1-18.5-12.5-20.1c-8.1-1.1-15.5,4.4-21.1,11.4l24.8,12l-11.9,24.8
			c8.9,1.9,18.2,1.5,23.9-4.6C157.3,121.7,146,108.5,145.5,107.4z M96.9,131.8c-5.1,2.3-21.7,34.8-7.7,48c9.1,8.6,22.4-2.6,23.5-3
			s18.5,0.1,20.3-12.4C135.6,145.3,102.4,130.4,96.9,131.8z M92.8,120.1c5.1-2.3,21.8-34.8,7.7-48c-9.1-8.6-22.4,2.6-23.5,3
			S58.5,75,56.8,87.4C54.1,106.6,87.4,121.5,92.8,120.1L92.8,120.1z M88.8,127.9c-2.4-5.1-34.8-21.7-48-7.7
			c-8.6,9.1,2.6,22.4,3,23.5c0.3,1.1-0.1,18.5,12.3,20.3C75.3,166.6,90.2,133.3,88.8,127.9L88.8,127.9z M60.5,177.9l6.7,6.7
			c4.4-4.6,10-12.4,12.2-24.1c-0.5-0.2-3.6-0.5-3.9-0.7C72.1,168.8,65.6,174.6,60.5,177.9L60.5,177.9z"/>
		
			<rect x="103.5" y="105.3" transform="matrix(0.4324 -0.9017 0.9017 0.4324 -40.4048 171.6479)" fill="#E01F26" width="25.3" height="25.3"/>
		
			<linearGradient id="SVGID_6_" gradientUnits="userSpaceOnUse" x1="120.3135" y1="1206.8251" x2="121.6996" y2="1209.6669" gradientTransform="matrix(1 0 0 -1 0 1316.0826)">
			<stop  offset="2.940000e-02" style="stop-color:#E01F26"/>
			<stop  offset="0.6732" style="stop-color:#A61E22"/>
		</linearGradient>
		<polygon fill="url(#SVGID_6_)" points="108.9,103.7 110.2,101 133,112 131.8,114.7 		"/>
		
			<linearGradient id="SVGID_7_" gradientUnits="userSpaceOnUse" x1="107.6116" y1="1202.2806" x2="104.6317" y2="1203.6702" gradientTransform="matrix(1 0 0 -1 0 1316.0826)">
			<stop  offset="2.941176e-02" style="stop-color:#E01F26"/>
			<stop  offset="0.6732" style="stop-color:#A61E22"/>
		</linearGradient>
		<polygon fill="url(#SVGID_7_)" points="99.3,123.9 110.2,101 113,102.3 102,125.2 		"/>
		
			<linearGradient id="SVGID_8_" gradientUnits="userSpaceOnUse" x1="113.5517" y1="1207.4261" x2="111.4224" y2="1215.373" gradientTransform="matrix(1 0 0 -1 0 1316.0826)">
			<stop  offset="0" style="stop-color:#E01F26;stop-opacity:0"/>
			<stop  offset="0.6471" style="stop-color:#A61E22"/>
		</linearGradient>
		<polygon fill="url(#SVGID_8_)" points="121.6,106.5 110.2,101 105.5,110.8 		"/>
	</g>
</g>
</svg>
